<svg xmlns="http://www.w3.org/2000/svg" width="80" height="40" data-name="Layer 1"><path d="M60.8 12.7l-.9-2.6h-.2L51.5 5a.5.5 0 0 0-.5 0l-7.6 4.6h-.2L42 11.9a.5.5 0 0 0 .2.7l9.8 5.7h.5l8.1-4.9a.5.5 0 0 0 .2-.7zM51.3 6l7.2 4.3-6.3 3.9-7.5-4.2zm1 11.2l-9-5 .7-1.4 7.9 4.5h.5l6.8-4.2.5 1.6z"/><path d="M50.4 8.9l1.1-.7 1.1.7h.3l.4-.2a.5.5 0 0 0-.1-.7l-1.4-.9a.5.5 0 0 0-.6 0l-1.4.9a.5.5 0 1 0 .6.9zM53.1 12.7l.4-.2a.5.5 0 0 0-.1-.7l-1.4-1a.5.5 0 0 0-.6 0l-1.3.8a.5.5 0 0 0 .6.9l1-.6 1.1.7zM52.7 10.6a.5.5 0 0 0 .7.1l1-.7 1.1.7h.3l.4-.2a.5.5 0 0 0-.1-.7L54.6 9a.5.5 0 0 0-.6 0l-1.3.9a.5.5 0 0 0 0 .7zM50.5 10.6a.5.5 0 0 0-.1-.7L49 9a.5.5 0 0 0-.6 0l-1.3.8a.5.5 0 1 0 .6.9l1.1-.7 1.1.7h.3zM20.5 12.7l-.9-2.6h-.2l-8.2-5.2a.5.5 0 0 0-.5 0L3.1 9.5h-.2l-1.1 2.6a.5.5 0 0 0 .2.7l9.7 5.4h.5l8.1-4.9a.5.5 0 0 0 .2-.6zM11 6l7.2 4.3-6.3 3.9L4.4 10zm1 11.2l-9-5 .7-1.4 7.9 4.5h.5l6.7-4.3.5 1.6z"/><path d="M10.1 8.8l1.1-.7 1.1.7h.3l.4-.2a.5.5 0 0 0-.1-.7L11.5 7a.5.5 0 0 0-.6 0L9.5 8a.5.5 0 0 0 .6.9zM12.8 12.6l.4-.2a.5.5 0 0 0-.1-.7l-1.4-.9a.5.5 0 0 0-.6 0l-1.3.8a.5.5 0 0 0 .6.9l1-.6 1.1.7zM12.4 10.5a.5.5 0 0 0 .7.1l1-.7 1.1.7h.3l.4-.2a.5.5 0 0 0-.1-.7l-1.4-.9a.5.5 0 0 0-.6 0l-1.3.9a.5.5 0 0 0-.1.8zM10.2 10.6a.5.5 0 0 0-.1-.7l-1.4-1a.5.5 0 0 0-.6 0l-1.3.8a.5.5 0 1 0 .6.9l1-.6 1.1.7h.3zM78.4 31.8l-.9-2.6h-.2L69.1 24a.5.5 0 0 0-.5 0L61 28.6h-.2l-1.2 2.3a.5.5 0 0 0 .2.7l9.7 5.4h.5l8.1-4.9a.5.5 0 0 0 .3-.3zm-9.5-6.7l7.1 4.2-6.3 3.9-7.4-4.2zm1 11.2l-9-5 .7-1.4 7.9 4.5h.5l6.8-4.2.5 1.6z"/><path d="M67.9 27.9l1.1-.7 1.1.7h.3l.4-.2a.5.5 0 0 0-.1-.7l-1.4-.9a.5.5 0 0 0-.6 0l-1.3.8a.5.5 0 1 0 .6.9zM70.7 31.7l.4-.2a.5.5 0 0 0-.1-.7l-1.4-.9a.5.5 0 0 0-.6 0l-1.3.8a.5.5 0 0 0 .6.9l1-.6 1.1.7zM70.2 29.6a.5.5 0 0 0 .7.1l1-.7 1.1.7h.3l.4-.2a.5.5 0 0 0-.1-.7l-1.4-.8a.5.5 0 0 0-.6 0l-1.3.9a.5.5 0 0 0-.1.7zM68.1 29.7a.5.5 0 0 0-.1-.7l-1.4-1a.5.5 0 0 0-.6 0l-1.3.8a.5.5 0 0 0 .6.9l1.1-.7 1.1.7h.3zM38.1 32.8l-.9-2.6H37l-8.2-4.9a.5.5 0 0 0-.5 0l-7.5 4.6h-.2l-1.2 2.3a.5.5 0 0 0 .2.7l9.7 5.4h.5l8.1-4.9a.5.5 0 0 0 .2-.6zm-9.5-6.7l7.2 4.3-6.3 3.9-7.4-4.2zm1 11.2l-9-5 .7-1.4 7.9 4.5h.5l6.8-4.2.5 1.6z"/><path d="M27.7 29l1.1-.7 1.1.7h.3l.4-.2a.5.5 0 0 0-.1-.7l-1.4-.9a.5.5 0 0 0-.6 0l-1.3.8a.5.5 0 1 0 .6.9zM30.4 32.8l.4-.2a.5.5 0 0 0-.1-.7l-1.4-.9a.5.5 0 0 0-.6 0l-1.3.8a.5.5 0 0 0 .6.9l1-.6 1.1.7zM30 30.7a.5.5 0 0 0 .7.1l1-.7 1.1.7h.3l.4-.2a.5.5 0 0 0-.1-.7l-1.4-.8a.5.5 0 0 0-.6 0l-1.3.9a.5.5 0 0 0-.1.7zM27.9 30.7a.5.5 0 0 0-.1-.7l-1.4-.9a.5.5 0 0 0-.6 0l-1.3.8a.5.5 0 1 0 .6.9l1.1-.7 1.1.7h.3z"/></svg>